HIERARCHY
ROOT wound
{
	OFFSET 0.000000 0.000000 0.000000
	CHANNELS 6 Xposition Yposition Zposition Xrotation Yrotation Zrotation
	JOINT Spine_01
	{
		OFFSET -0.000000 138.184219 -44.816219
		CHANNELS 3 Xrotation Yrotation Zrotation
		JOINT Spine_02
		{
			OFFSET -0.000003 -4.180267 28.050579
			CHANNELS 3 Xrotation Yrotation Zrotation
			JOINT Spine_03
			{
				OFFSET -0.000003 -2.923813 35.501560
				CHANNELS 3 Xrotation Yrotation Zrotation
				JOINT Spine_04
				{
					OFFSET -0.000002 1.220093 39.223053
					CHANNELS 3 Xrotation Yrotation Zrotation
					JOINT Neck_Base
					{
						OFFSET -0.000003 3.589035 29.437283
						CHANNELS 3 Xrotation Yrotation Zrotation
						JOINT Neck_01
						{
							OFFSET -0.000002 17.853806 9.438614
							CHANNELS 3 Xrotation Yrotation Zrotation
							JOINT Neck_02
							{
								OFFSET 0.000148 15.283737 15.280380
								CHANNELS 3 Xrotation Yrotation Zrotation
								JOINT Head
								{
									OFFSET 0.000907 15.541245 15.523605
									CHANNELS 3 Xrotation Yrotation Zrotation
									JOINT L_Ear
									{
										OFFSET 7.925150 15.989334 10.211792
										CHANNELS 3 Xrotation Yrotation Zrotation
										End Site
										{
											OFFSET 5.445827 7.761017 -13.963913
										}
									}
									JOINT R_Ear
									{
										OFFSET -7.923855 15.989685 10.212418
										CHANNELS 3 Xrotation Yrotation Zrotation
										End Site
										{
											OFFSET 5.447087 -7.761108 13.963364
										}
									}
									JOINT Jaw
									{
										OFFSET 0.000369 -4.774384 8.228775
										CHANNELS 3 Xrotation Yrotation Zrotation
										End Site
										{
											OFFSET 0.000100 16.853516 -0.916611
										}
									}
								}
							}
						}
					}
					JOINT R_Scapula
					{
						OFFSET -6.756301 17.541809 7.673992
						CHANNELS 3 Xrotation Yrotation Zrotation
						JOINT R_Shoulder
						{
							OFFSET -4.012417 -35.541100 21.975204
							CHANNELS 3 Xrotation Yrotation Zrotation
							JOINT R_Front_UpperLeg
							{
								OFFSET -3.177618 -27.372452 -18.691002
								CHANNELS 3 Xrotation Yrotation Zrotation
								JOINT R_Front_LowerLeg
								{
									OFFSET 1.602910 -39.613792 4.052773
									CHANNELS 3 Xrotation Yrotation Zrotation
									JOINT R_Front_Ankle
									{
										OFFSET 1.184065 -30.600536 1.010201
										CHANNELS 3 Xrotation Yrotation Zrotation
										JOINT R_Front_Hoof
										{
											OFFSET 0.000001 -9.177106 4.105614
											CHANNELS 3 Xrotation Yrotation Zrotation
											End Site
											{
												OFFSET 0.000001 -0.000002 -10.053635
											}
										}
									}
								}
							}
						}
					}
					JOINT L_Scapula
					{
						OFFSET 6.756304 17.541611 7.674046
						CHANNELS 3 Xrotation Yrotation Zrotation
						JOINT L_Shoulder
						{
							OFFSET 2.967161 -35.673485 21.926056
							CHANNELS 3 Xrotation Yrotation Zrotation
							JOINT L_Front_UpperLeg
							{
								OFFSET 1.995074 -26.953537 -19.447914
								CHANNELS 3 Xrotation Yrotation Zrotation
								JOINT L_Front_LowerLeg
								{
									OFFSET -0.867885 -39.632118 -4.094696
									CHANNELS 3 Xrotation Yrotation Zrotation
									JOINT L_Front_Ankle
									{
										OFFSET -0.660717 -30.429415 -3.524235
										CHANNELS 3 Xrotation Yrotation Zrotation
										JOINT L_Front_Hoof
										{
											OFFSET 0.004589 -9.221649 4.004421
											CHANNELS 3 Xrotation Yrotation Zrotation
											End Site
											{
												OFFSET 0.011361 -0.110421 10.052956
											}
										}
									}
								}
							}
						}
					}
				}
			}
		}
		JOINT L_Hip
		{
			OFFSET 14.887407 -7.729385 -12.131332
			CHANNELS 3 Xrotation Yrotation Zrotation
			JOINT L_Back_UpperLeg
			{
				OFFSET 0.000001 -34.478554 8.440952
				CHANNELS 3 Xrotation Yrotation Zrotation
				JOINT L_Back_LowerLeg
				{
					OFFSET -3.196044 -42.364552 -14.576733
					CHANNELS 3 Xrotation Yrotation Zrotation
					JOINT L_Back_Ankle
					{
						OFFSET 1.655679 -33.756046 12.931908
						CHANNELS 3 Xrotation Yrotation Zrotation
						JOINT L_Back_Hoof
						{
							OFFSET 0.582801 -11.035065 3.767303
							CHANNELS 3 Xrotation Yrotation Zrotation
							End Site
							{
								OFFSET 1.784864 0.000007 11.537731
							}
						}
					}
				}
			}
		}
		JOINT R_Hip
		{
			OFFSET -14.887403 -7.729263 -12.131321
			CHANNELS 3 Xrotation Yrotation Zrotation
			JOINT R_Back_UpperLeg
			{
				OFFSET -0.000001 -35.225845 4.378201
				CHANNELS 3 Xrotation Yrotation Zrotation
				JOINT R_Back_LowerLeg
				{
					OFFSET 3.960898 -39.350445 -21.290836
					CHANNELS 3 Xrotation Yrotation Zrotation
					JOINT R_Back_Ankle
					{
						OFFSET -0.902665 -36.023094 3.312668
						CHANNELS 3 Xrotation Yrotation Zrotation
						JOINT R_Back_Hoof
						{
							OFFSET -0.767586 -11.035024 3.734024
							CHANNELS 3 Xrotation Yrotation Zrotation
							End Site
							{
								OFFSET 2.350783 -0.000007 -11.435814
							}
						}
					}
				}
			}
		}
		JOINT Tail_01
		{
			OFFSET 0.000002 9.427795 -23.815601
			CHANNELS 3 Xrotation Yrotation Zrotation
			JOINT Tail_02
			{
				OFFSET -0.012694 -21.342262 -20.047302
				CHANNELS 3 Xrotation Yrotation Zrotation
				JOINT Tail_03
				{
					OFFSET -0.006651 -30.740120 -3.600845
					CHANNELS 3 Xrotation Yrotation Zrotation
					JOINT Tail_04
					{
						OFFSET -0.005205 -30.781754 -0.448181
						CHANNELS 3 Xrotation Yrotation Zrotation
						JOINT Tail_05
						{
							OFFSET -0.005468 -30.958424 -0.949944
							CHANNELS 3 Xrotation Yrotation Zrotation
							End Site
							{
								OFFSET -0.013741 2.804802 -30.845734
							}
						}
					}
				}
			}
		}
	}
}
MOTION
Frames: 7
Frame Time: 0.033333
0.000000 0.000000 0.000000 0.000006 0.000000 -0.000000 -0.000026 -0.000000 -0.000000 0.000057 0.000000 -0.000000 -0.000034 0.000000 0.000000 -0.000050 -0.000000 -0.000000 0.000017 -0.000000 -0.000000 -0.000005 0.000000 0.000000 0.000019 0.000000 -0.000000 0.000007 -0.000059 -0.000002 -0.000028 0.000063 0.000010 -0.000031 0.000058 0.000018 -0.000009 0.000066 0.000011 0.000021 -0.000001 0.000002 -0.000006 -0.000031 -0.000006 0.000007 0.000001 0.000000 0.000007 -0.000063 0.000004 -0.000050 -0.000006 0.000000 0.000033 -0.000033 0.000083 0.000027 0.000000 -0.000000 -0.000013 0.000053 -0.000005 -0.000005 -0.000003 0.000002 -0.000008 0.000000 -0.000003 -0.000058 -0.000003 -0.000007 0.000049 0.000005 0.000009 -0.000002 -0.000005 0.000001 0.000006 0.000003 0.000003 0.000012 -0.000004 -0.000010 -0.000010 0.000000 -0.000002 0.000010 0.000092 -0.000027 0.000002 0.000001 -0.000001 0.000005 -0.000005 -0.000004 -0.000015 -0.000002 -0.000011 0.000044 -0.000005 0.000001 -0.000049 -0.000102 0.000029 -0.000025 -0.000004 -0.000001 -0.000015 0.000000 -0.000000 0.000012 -0.000000 -0.000000 0.000013 -0.000000 0.000000 -0.000009 0.000000 -0.000001 
0.000000 0.000000 0.000000 0.000006 0.000000 -0.000000 -2.106187 0.387460 0.006529 7.049154 -0.529657 0.217016 6.813278 -0.114926 0.132182 1.262604 0.271052 0.028946 0.816855 -0.784329 -0.548625 0.816675 -0.587925 -0.755326 13.825799 -0.688449 -0.939211 -11.406471 -0.000018 0.000571 -6.130603 3.114638 -0.515656 -19.667716 -10.046796 0.464758 0.312200 0.000064 -0.000005 -3.594569 0.491675 -0.135818 3.142993 -0.359660 0.002140 -28.372679 -1.407184 -1.060896 37.566959 1.018546 -1.341030 -11.280713 0.219924 1.257661 0.000033 -0.000033 0.000082 -3.629086 -0.343246 0.125338 3.186254 0.250908 -0.028823 -36.068894 0.716965 -0.739613 38.609868 -0.651821 0.823645 -10.430515 0.618813 -0.164406 0.000050 0.000005 0.000009 3.939942 -0.000005 0.000001 -17.672039 -2.351954 3.461564 39.784220 -2.887445 -6.073950 -19.802172 -0.963750 1.228495 0.000014 0.000092 -0.000027 9.495789 0.000001 -0.000001 -15.449693 16.739921 3.424463 33.536775 1.683530 6.361904 24.068757 -11.741581 16.794247 -0.000048 -0.000112 0.000036 -0.716109 -1.252460 0.530708 2.219310 0.169880 -0.386410 -2.646348 0.031369 -0.347071 -1.711146 0.015516 -0.405120 -0.000009 0.000004 -0.000000 
0.000000 0.000000 0.000000 0.000006 0.000000 -0.000000 -6.920051 1.238078 0.088135 14.594466 -1.619425 0.690103 16.689075 -0.411113 0.074285 5.673197 0.807886 0.100662 2.728232 -2.675416 -1.817953 2.726079 -2.021370 -2.525314 27.611844 -2.022339 -2.524877 -22.812996 -0.000092 0.001146 -19.667938 10.046903 -0.462676 -40.177597 -19.644018 -2.651250 1.135297 0.000055 -0.000047 -11.802195 1.731510 -0.384846 9.085367 -1.036837 0.060015 -40.428378 -2.011647 -3.861582 52.304035 1.147235 -1.999095 -3.782941 1.839185 3.083731 0.000032 -0.000033 0.000082 -11.949176 -1.232593 0.386562 9.250275 0.722135 -0.121952 -62.866065 1.611187 -1.040175 50.316914 -0.725816 1.139067 1.198503 1.013549 -0.432543 0.000050 0.000005 0.000009 13.789808 -0.000005 -0.000004 -18.217209 -6.864226 4.360415 39.784213 -2.887445 -6.073950 -14.054733 -4.066260 -3.504687 0.000011 0.000092 -0.000026 18.991592 -0.000001 -0.000005 -11.714032 12.337697 1.804815 33.536779 1.683527 6.361905 14.333231 -9.418325 12.234354 -0.000045 -0.000111 0.000033 2.186182 -3.713161 1.689114 1.910171 0.387973 -0.873422 -8.842579 0.164834 -1.134886 -6.268573 0.122394 -1.565641 -0.000008 0.000008 -0.000001 
0.000000 0.000000 0.000000 0.000006 0.000000 -0.000000 -12.037180 2.089470 0.232800 20.329850 -2.651972 1.214692 21.390687 -0.779292 -0.177698 6.478911 1.310725 0.115395 4.950223 -4.979590 -3.245863 4.939530 -3.803610 -4.568500 22.949053 -3.627771 -4.238932 -18.369005 -0.000050 0.000924 -33.604305 16.768914 1.281197 -21.745555 -11.089714 0.311289 2.298974 0.000046 -0.000103 -20.982312 3.376053 -0.562571 13.582572 -1.543148 0.150264 -23.139303 -2.619764 -5.307931 41.809043 1.072897 -1.526747 17.835729 3.718224 4.159814 0.000040 -0.000036 0.000083 -21.314935 -2.481756 0.647050 13.910824 1.076017 -0.227069 -65.078466 2.204113 -0.975243 56.296721 -0.738409 1.304285 9.806853 1.464356 -0.984359 0.000048 0.000005 0.000009 26.594626 -0.000001 0.000010 -20.449571 -12.553682 5.002419 39.784220 -2.887444 -6.073950 -6.826688 -8.846300 -6.553686 0.000009 0.000090 -0.000025 18.016895 0.000000 0.000007 10.213754 9.529734 1.592546 7.113547 0.039371 1.412112 22.396236 -7.342977 12.182572 -0.000045 -0.000110 0.000032 6.414840 -5.962484 2.984403 1.623268 0.381677 -0.853273 -18.008951 0.404643 -1.770774 -14.545356 0.430358 -2.838797 -0.000012 0.000012 -0.000001 
0.000000 0.000000 0.000000 0.000006 0.000000 -0.000000 -15.046265 2.522482 0.167488 21.687403 -3.245704 1.492919 24.595501 -0.979957 -0.332174 7.933599 1.695903 0.141670 6.782912 -7.005461 -4.265769 6.752052 -5.440195 -6.140067 13.840160 -5.354467 -5.973318 -7.672661 -0.000018 0.000379 -40.178451 19.643426 2.655388 13.083524 6.282324 -2.167197 3.632943 0.000033 -0.000173 -28.088689 4.985093 -0.663626 15.274361 -1.731493 0.194453 -13.994975 -2.764307 -5.059725 49.759335 1.137185 -1.883441 28.241799 4.732193 4.906016 0.000046 -0.001537 0.000082 -28.612605 -3.848087 0.901896 15.741732 1.212487 -0.276174 -59.744689 2.995664 -0.823018 57.233799 -0.738815 1.330261 18.182182 1.646820 -1.553193 0.000062 0.000004 0.000008 39.399458 -0.000000 0.000010 -25.337499 -18.453790 4.823305 39.784223 -2.887443 -6.073950 0.805434 -12.603858 -6.501247 0.000011 0.000088 -0.000023 15.545750 0.000000 0.000006 28.503295 8.004014 2.558589 -19.477551 0.782011 -3.775398 33.304129 -5.320141 13.058725 -0.000041 -0.000108 0.000031 9.264411 -7.431382 3.955377 2.042654 0.182963 -0.414142 -26.272056 0.526421 -1.716012 -21.407939 0.645432 -3.018160 -0.000008 0.000017 -0.000000 
0.000000 0.000000 0.000000 0.000006 0.000000 -0.000000 -17.013859 2.231940 -0.400055 20.093547 -3.070064 1.352845 26.896160 -0.719090 -0.128620 10.017060 1.863085 0.186589 7.596480 -8.066335 -4.296786 7.534012 -6.444765 -6.484504 7.533701 -6.447743 -6.481591 5.322730 -0.000112 -0.000265 -21.674962 11.054408 -0.314862 39.180663 16.049517 -10.094566 4.966913 0.000017 -0.000242 -30.872076 5.898653 -0.806859 15.353714 -1.740295 0.196664 -11.466761 -2.806586 -4.653902 68.555080 1.090257 -2.735848 19.303423 5.146813 6.208194 0.000047 -0.000064 0.000079 -31.474150 -4.885425 1.258009 15.872762 1.222192 -0.279856 -53.721296 4.098286 -0.671744 56.655313 -0.738611 1.314228 24.728655 1.516585 -1.978805 0.000055 0.000004 0.000008 49.249328 0.000001 0.000009 -28.709013 -22.515611 4.388529 39.784226 -2.887444 -6.073951 6.350721 -14.050198 -4.508154 0.000016 0.000073 -0.000025 12.257509 -0.000000 0.000004 40.736949 7.096533 3.821055 -40.105300 2.938789 -7.261117 43.227468 -2.783396 13.316956 -0.000041 -0.000108 0.000031 11.346551 -7.964521 4.427084 2.098455 -0.039160 0.086620 -30.073733 0.429954 -1.245603 -23.617158 0.616163 -2.628534 -0.000010 0.000020 0.000001 
0.000000 0.000000 0.000000 0.000006 0.000000 -0.000000 -20.178870 1.394719 -1.505418 19.143294 -2.208175 1.117265 27.576419 0.028386 0.562355 10.642866 1.781471 0.228035 7.405049 -7.180682 -2.913013 7.330468 -6.004372 -4.903053 5.237944 -6.006899 -4.899965 16.663766 -0.000292 -0.000792 13.226412 -6.347252 2.197101 49.047732 18.511588 -14.001664 6.130595 -0.000000 -0.000297 -30.773950 6.176307 -1.021142 15.083913 -1.710360 0.189203 -9.889451 -2.725409 -4.606249 77.405598 0.972678 -3.121698 13.351620 5.606840 7.379909 0.000046 -0.000061 0.000077 -31.354366 -5.513123 1.711887 15.589661 1.201214 -0.271930 -43.881848 5.506176 -0.892706 56.549233 -0.738553 1.311291 28.041055 1.082527 -2.254811 0.000061 0.000006 0.000008 53.189275 0.000001 0.000008 -24.506633 -23.398104 4.845066 39.784223 -2.887445 -6.073950 6.017294 -13.384637 -2.918599 0.000018 0.000068 -0.000028 8.831504 0.000001 0.000001 48.127156 6.044784 5.521938 -52.571116 4.800986 -8.924000 49.577348 0.294642 12.125762 -0.000042 -0.000105 0.000030 14.088219 -8.291322 4.871804 1.689445 0.042686 -0.096840 -24.306760 0.488209 -1.695598 -18.969250 0.657434 -3.434280 -0.000011 0.000023 0.000000 
